<mxfile host="65bd71144e">
    <diagram name="Page-1" id="2dyN5okUcHyr4ST0MJCw">
        <mxGraphModel dx="3998" dy="1590" grid="0" gridSize="10" guides="1" tooltips="1" connect="1" arrows="1" fold="1" page="0" pageScale="1" pageWidth="1200" pageHeight="1920" math="0" shadow="0">
            <root>
                <mxCell id="0"/>
                <mxCell id="1" parent="0"/>
                <mxCell id="BWV3k3NZD4E5SkaaorZz-1" value="Payroll" style="swimlane;fontStyle=1;align=center;verticalAlign=top;childLayout=stackLayout;horizontal=1;startSize=26;horizontalStack=0;resizeParent=1;resizeParentMax=0;resizeLast=0;collapsible=1;marginBottom=0;whiteSpace=wrap;html=1;" parent="1" vertex="1">
                    <mxGeometry x="532" y="-173" width="160" height="320" as="geometry"/>
                </mxCell>
                <mxCell id="BWV3k3NZD4E5SkaaorZz-2" value="+ pay_date: Date" style="text;strokeColor=none;fillColor=none;align=left;verticalAlign=top;spacingLeft=4;spacingRight=4;overflow=hidden;rotatable=0;points=[[0,0.5],[1,0.5]];portConstraint=eastwest;whiteSpace=wrap;html=1;" parent="BWV3k3NZD4E5SkaaorZz-1" vertex="1">
                    <mxGeometry y="26" width="160" height="26" as="geometry"/>
                </mxCell>
                <mxCell id="BWV3k3NZD4E5SkaaorZz-3" value="+ fed_tax: double" style="text;strokeColor=none;fillColor=none;align=left;verticalAlign=top;spacingLeft=4;spacingRight=4;overflow=hidden;rotatable=0;points=[[0,0.5],[1,0.5]];portConstraint=eastwest;whiteSpace=wrap;html=1;" parent="BWV3k3NZD4E5SkaaorZz-1" vertex="1">
                    <mxGeometry y="52" width="160" height="26" as="geometry"/>
                </mxCell>
                <mxCell id="BWV3k3NZD4E5SkaaorZz-4" value="+ fed_med: double" style="text;strokeColor=none;fillColor=none;align=left;verticalAlign=top;spacingLeft=4;spacingRight=4;overflow=hidden;rotatable=0;points=[[0,0.5],[1,0.5]];portConstraint=eastwest;whiteSpace=wrap;html=1;" parent="BWV3k3NZD4E5SkaaorZz-1" vertex="1">
                    <mxGeometry y="78" width="160" height="26" as="geometry"/>
                </mxCell>
                <mxCell id="BWV3k3NZD4E5SkaaorZz-5" value="+ fed_ss: double" style="text;strokeColor=none;fillColor=none;align=left;verticalAlign=top;spacingLeft=4;spacingRight=4;overflow=hidden;rotatable=0;points=[[0,0.5],[1,0.5]];portConstraint=eastwest;whiteSpace=wrap;html=1;" parent="BWV3k3NZD4E5SkaaorZz-1" vertex="1">
                    <mxGeometry y="104" width="160" height="26" as="geometry"/>
                </mxCell>
                <mxCell id="BWV3k3NZD4E5SkaaorZz-6" value="+ state_tax: double" style="text;strokeColor=none;fillColor=none;align=left;verticalAlign=top;spacingLeft=4;spacingRight=4;overflow=hidden;rotatable=0;points=[[0,0.5],[1,0.5]];portConstraint=eastwest;whiteSpace=wrap;html=1;" parent="BWV3k3NZD4E5SkaaorZz-1" vertex="1">
                    <mxGeometry y="130" width="160" height="26" as="geometry"/>
                </mxCell>
                <mxCell id="BWV3k3NZD4E5SkaaorZz-7" value="" style="line;strokeWidth=1;fillColor=none;align=left;verticalAlign=middle;spacingTop=-1;spacingLeft=3;spacingRight=3;rotatable=0;labelPosition=right;points=[];portConstraint=eastwest;strokeColor=inherit;" parent="BWV3k3NZD4E5SkaaorZz-1" vertex="1">
                    <mxGeometry y="156" width="160" height="8" as="geometry"/>
                </mxCell>
                <mxCell id="BWV3k3NZD4E5SkaaorZz-8" value="+ getPayDate(): Date" style="text;strokeColor=none;fillColor=none;align=left;verticalAlign=top;spacingLeft=4;spacingRight=4;overflow=hidden;rotatable=0;points=[[0,0.5],[1,0.5]];portConstraint=eastwest;whiteSpace=wrap;html=1;" parent="BWV3k3NZD4E5SkaaorZz-1" vertex="1">
                    <mxGeometry y="164" width="160" height="26" as="geometry"/>
                </mxCell>
                <mxCell id="BWV3k3NZD4E5SkaaorZz-9" value="+ getFedTax(): double" style="text;strokeColor=none;fillColor=none;align=left;verticalAlign=top;spacingLeft=4;spacingRight=4;overflow=hidden;rotatable=0;points=[[0,0.5],[1,0.5]];portConstraint=eastwest;whiteSpace=wrap;html=1;" parent="BWV3k3NZD4E5SkaaorZz-1" vertex="1">
                    <mxGeometry y="190" width="160" height="26" as="geometry"/>
                </mxCell>
                <mxCell id="BWV3k3NZD4E5SkaaorZz-10" value="+ getFedTax(): double" style="text;strokeColor=none;fillColor=none;align=left;verticalAlign=top;spacingLeft=4;spacingRight=4;overflow=hidden;rotatable=0;points=[[0,0.5],[1,0.5]];portConstraint=eastwest;whiteSpace=wrap;html=1;" parent="BWV3k3NZD4E5SkaaorZz-1" vertex="1">
                    <mxGeometry y="216" width="160" height="26" as="geometry"/>
                </mxCell>
                <mxCell id="BWV3k3NZD4E5SkaaorZz-11" value="+ getFedS(): double" style="text;strokeColor=none;fillColor=none;align=left;verticalAlign=top;spacingLeft=4;spacingRight=4;overflow=hidden;rotatable=0;points=[[0,0.5],[1,0.5]];portConstraint=eastwest;whiteSpace=wrap;html=1;" parent="BWV3k3NZD4E5SkaaorZz-1" vertex="1">
                    <mxGeometry y="242" width="160" height="26" as="geometry"/>
                </mxCell>
                <mxCell id="BWV3k3NZD4E5SkaaorZz-12" value="+ getStateTax(): double" style="text;strokeColor=none;fillColor=none;align=left;verticalAlign=top;spacingLeft=4;spacingRight=4;overflow=hidden;rotatable=0;points=[[0,0.5],[1,0.5]];portConstraint=eastwest;whiteSpace=wrap;html=1;" parent="BWV3k3NZD4E5SkaaorZz-1" vertex="1">
                    <mxGeometry y="268" width="160" height="26" as="geometry"/>
                </mxCell>
                <mxCell id="BWV3k3NZD4E5SkaaorZz-13" value="+ toString(): String" style="text;strokeColor=none;fillColor=none;align=left;verticalAlign=top;spacingLeft=4;spacingRight=4;overflow=hidden;rotatable=0;points=[[0,0.5],[1,0.5]];portConstraint=eastwest;whiteSpace=wrap;html=1;" parent="BWV3k3NZD4E5SkaaorZz-1" vertex="1">
                    <mxGeometry y="294" width="160" height="26" as="geometry"/>
                </mxCell>
                <mxCell id="BWV3k3NZD4E5SkaaorZz-14" value="&lt;i&gt;GeneralEmployee&lt;/i&gt;" style="swimlane;fontStyle=1;align=center;verticalAlign=top;childLayout=stackLayout;horizontal=1;startSize=26;horizontalStack=0;resizeParent=1;resizeParentMax=0;resizeLast=0;collapsible=1;marginBottom=0;whiteSpace=wrap;html=1;fontSize=16;" parent="1" vertex="1">
                    <mxGeometry x="-235" y="-169" width="449" height="538" as="geometry"/>
                </mxCell>
                <mxCell id="BWV3k3NZD4E5SkaaorZz-15" value="+ employee_id : int" style="text;strokeColor=none;fillColor=none;align=left;verticalAlign=top;spacingLeft=4;spacingRight=4;overflow=hidden;rotatable=0;points=[[0,0.5],[1,0.5]];portConstraint=eastwest;whiteSpace=wrap;html=1;fontSize=16;" parent="BWV3k3NZD4E5SkaaorZz-14" vertex="1">
                    <mxGeometry y="26" width="449" height="26" as="geometry"/>
                </mxCell>
                <mxCell id="BWV3k3NZD4E5SkaaorZz-16" value="+ first_name: String" style="text;strokeColor=none;fillColor=none;align=left;verticalAlign=top;spacingLeft=4;spacingRight=4;overflow=hidden;rotatable=0;points=[[0,0.5],[1,0.5]];portConstraint=eastwest;whiteSpace=wrap;html=1;fontSize=16;" parent="BWV3k3NZD4E5SkaaorZz-14" vertex="1">
                    <mxGeometry y="52" width="449" height="26" as="geometry"/>
                </mxCell>
                <mxCell id="BWV3k3NZD4E5SkaaorZz-17" value="+ last_name: String" style="text;strokeColor=none;fillColor=none;align=left;verticalAlign=top;spacingLeft=4;spacingRight=4;overflow=hidden;rotatable=0;points=[[0,0.5],[1,0.5]];portConstraint=eastwest;whiteSpace=wrap;html=1;fontSize=16;" parent="BWV3k3NZD4E5SkaaorZz-14" vertex="1">
                    <mxGeometry y="78" width="449" height="26" as="geometry"/>
                </mxCell>
                <mxCell id="BWV3k3NZD4E5SkaaorZz-18" value="+ email: String" style="text;strokeColor=none;fillColor=none;align=left;verticalAlign=top;spacingLeft=4;spacingRight=4;overflow=hidden;rotatable=0;points=[[0,0.5],[1,0.5]];portConstraint=eastwest;whiteSpace=wrap;html=1;fontSize=16;" parent="BWV3k3NZD4E5SkaaorZz-14" vertex="1">
                    <mxGeometry y="104" width="449" height="26" as="geometry"/>
                </mxCell>
                <mxCell id="BWV3k3NZD4E5SkaaorZz-19" value="+ hire_date: Date" style="text;strokeColor=none;fillColor=none;align=left;verticalAlign=top;spacingLeft=4;spacingRight=4;overflow=hidden;rotatable=0;points=[[0,0.5],[1,0.5]];portConstraint=eastwest;whiteSpace=wrap;html=1;fontSize=16;" parent="BWV3k3NZD4E5SkaaorZz-14" vertex="1">
                    <mxGeometry y="130" width="449" height="26" as="geometry"/>
                </mxCell>
                <mxCell id="BWV3k3NZD4E5SkaaorZz-20" value="+ demographics: Demograhpic" style="text;strokeColor=none;fillColor=none;align=left;verticalAlign=top;spacingLeft=4;spacingRight=4;overflow=hidden;rotatable=0;points=[[0,0.5],[1,0.5]];portConstraint=eastwest;whiteSpace=wrap;html=1;fontSize=16;" parent="BWV3k3NZD4E5SkaaorZz-14" vertex="1">
                    <mxGeometry y="156" width="449" height="26" as="geometry"/>
                </mxCell>
                <mxCell id="BWV3k3NZD4E5SkaaorZz-21" value="+ employeeJobTitles: ArrayList&amp;lt;EmployeeJobTitle&amp;gt;" style="text;strokeColor=none;fillColor=none;align=left;verticalAlign=top;spacingLeft=4;spacingRight=4;overflow=hidden;rotatable=0;points=[[0,0.5],[1,0.5]];portConstraint=eastwest;whiteSpace=wrap;html=1;fontSize=16;" parent="BWV3k3NZD4E5SkaaorZz-14" vertex="1">
                    <mxGeometry y="182" width="449" height="26" as="geometry"/>
                </mxCell>
                <mxCell id="BWV3k3NZD4E5SkaaorZz-22" value="+ address: Address" style="text;strokeColor=none;fillColor=none;align=left;verticalAlign=top;spacingLeft=4;spacingRight=4;overflow=hidden;rotatable=0;points=[[0,0.5],[1,0.5]];portConstraint=eastwest;whiteSpace=wrap;html=1;fontSize=16;" parent="BWV3k3NZD4E5SkaaorZz-14" vertex="1">
                    <mxGeometry y="208" width="449" height="26" as="geometry"/>
                </mxCell>
                <mxCell id="BWV3k3NZD4E5SkaaorZz-23" value="+ payroll: ArrayList&amp;lt;Payroll&amp;gt; payrolls" style="text;strokeColor=none;fillColor=none;align=left;verticalAlign=top;spacingLeft=4;spacingRight=4;overflow=hidden;rotatable=0;points=[[0,0.5],[1,0.5]];portConstraint=eastwest;whiteSpace=wrap;html=1;fontSize=16;" parent="BWV3k3NZD4E5SkaaorZz-14" vertex="1">
                    <mxGeometry y="234" width="449" height="26" as="geometry"/>
                </mxCell>
                <mxCell id="BWV3k3NZD4E5SkaaorZz-24" value="" style="line;strokeWidth=1;fillColor=none;align=left;verticalAlign=middle;spacingTop=-1;spacingLeft=3;spacingRight=3;rotatable=0;labelPosition=right;points=[];portConstraint=eastwest;strokeColor=inherit;fontSize=16;" parent="BWV3k3NZD4E5SkaaorZz-14" vertex="1">
                    <mxGeometry y="260" width="449" height="8" as="geometry"/>
                </mxCell>
                <mxCell id="BWV3k3NZD4E5SkaaorZz-25" value="+ getEmployeeId(): int" style="text;strokeColor=none;fillColor=none;align=left;verticalAlign=top;spacingLeft=4;spacingRight=4;overflow=hidden;rotatable=0;points=[[0,0.5],[1,0.5]];portConstraint=eastwest;whiteSpace=wrap;html=1;fontSize=16;" parent="BWV3k3NZD4E5SkaaorZz-14" vertex="1">
                    <mxGeometry y="268" width="449" height="26" as="geometry"/>
                </mxCell>
                <mxCell id="BWV3k3NZD4E5SkaaorZz-26" value="+ getFirstName(): String" style="text;strokeColor=none;fillColor=none;align=left;verticalAlign=top;spacingLeft=4;spacingRight=4;overflow=hidden;rotatable=0;points=[[0,0.5],[1,0.5]];portConstraint=eastwest;whiteSpace=wrap;html=1;fontSize=16;" parent="BWV3k3NZD4E5SkaaorZz-14" vertex="1">
                    <mxGeometry y="294" width="449" height="26" as="geometry"/>
                </mxCell>
                <mxCell id="BWV3k3NZD4E5SkaaorZz-27" value="+ getLastName(): String" style="text;strokeColor=none;fillColor=none;align=left;verticalAlign=top;spacingLeft=4;spacingRight=4;overflow=hidden;rotatable=0;points=[[0,0.5],[1,0.5]];portConstraint=eastwest;whiteSpace=wrap;html=1;fontSize=16;" parent="BWV3k3NZD4E5SkaaorZz-14" vertex="1">
                    <mxGeometry y="320" width="449" height="26" as="geometry"/>
                </mxCell>
                <mxCell id="BWV3k3NZD4E5SkaaorZz-28" value="+ getEmail(): String" style="text;strokeColor=none;fillColor=none;align=left;verticalAlign=top;spacingLeft=4;spacingRight=4;overflow=hidden;rotatable=0;points=[[0,0.5],[1,0.5]];portConstraint=eastwest;whiteSpace=wrap;html=1;fontSize=16;" parent="BWV3k3NZD4E5SkaaorZz-14" vertex="1">
                    <mxGeometry y="346" width="449" height="26" as="geometry"/>
                </mxCell>
                <mxCell id="BWV3k3NZD4E5SkaaorZz-29" value="+ setFirstName(String): void" style="text;strokeColor=none;fillColor=none;align=left;verticalAlign=top;spacingLeft=4;spacingRight=4;overflow=hidden;rotatable=0;points=[[0,0.5],[1,0.5]];portConstraint=eastwest;whiteSpace=wrap;html=1;fontSize=16;" parent="BWV3k3NZD4E5SkaaorZz-14" vertex="1">
                    <mxGeometry y="372" width="449" height="26" as="geometry"/>
                </mxCell>
                <mxCell id="BWV3k3NZD4E5SkaaorZz-30" value="+ setLastName(String): void" style="text;strokeColor=none;fillColor=none;align=left;verticalAlign=top;spacingLeft=4;spacingRight=4;overflow=hidden;rotatable=0;points=[[0,0.5],[1,0.5]];portConstraint=eastwest;whiteSpace=wrap;html=1;fontSize=16;" parent="BWV3k3NZD4E5SkaaorZz-14" vertex="1">
                    <mxGeometry y="398" width="449" height="26" as="geometry"/>
                </mxCell>
                <mxCell id="BWV3k3NZD4E5SkaaorZz-31" value="+ setEmail(String): void" style="text;strokeColor=none;fillColor=none;align=left;verticalAlign=top;spacingLeft=4;spacingRight=4;overflow=hidden;rotatable=0;points=[[0,0.5],[1,0.5]];portConstraint=eastwest;whiteSpace=wrap;html=1;fontSize=16;" parent="BWV3k3NZD4E5SkaaorZz-14" vertex="1">
                    <mxGeometry y="424" width="449" height="26" as="geometry"/>
                </mxCell>
                <mxCell id="BWV3k3NZD4E5SkaaorZz-32" value="+ searchEmployee(int): Employee" style="text;strokeColor=none;fillColor=none;align=left;verticalAlign=top;spacingLeft=4;spacingRight=4;overflow=hidden;rotatable=0;points=[[0,0.5],[1,0.5]];portConstraint=eastwest;whiteSpace=wrap;html=1;fontSize=16;" parent="BWV3k3NZD4E5SkaaorZz-14" vertex="1">
                    <mxGeometry y="450" width="449" height="26" as="geometry"/>
                </mxCell>
                <mxCell id="BWV3k3NZD4E5SkaaorZz-33" value="+ toString(): String&lt;br&gt;&lt;i&gt;+ updatedEmployeeData(updates: Map&amp;lt;String, Object&amp;gt;&lt;/i&gt;" style="text;strokeColor=none;fillColor=none;align=left;verticalAlign=top;spacingLeft=4;spacingRight=4;overflow=hidden;rotatable=0;points=[[0,0.5],[1,0.5]];portConstraint=eastwest;whiteSpace=wrap;html=1;fontSize=16;" parent="BWV3k3NZD4E5SkaaorZz-14" vertex="1">
                    <mxGeometry y="476" width="449" height="62" as="geometry"/>
                </mxCell>
                <mxCell id="BWV3k3NZD4E5SkaaorZz-36" value="Fulltime_Employee" style="swimlane;fontStyle=1;align=center;verticalAlign=top;childLayout=stackLayout;horizontal=1;startSize=26;horizontalStack=0;resizeParent=1;resizeParentMax=0;resizeLast=0;collapsible=1;marginBottom=0;whiteSpace=wrap;html=1;fontSize=16;" parent="1" vertex="1">
                    <mxGeometry x="-430" y="472" width="371" height="216" as="geometry"/>
                </mxCell>
                <mxCell id="BWV3k3NZD4E5SkaaorZz-37" value="+ salary: double" style="text;strokeColor=none;fillColor=none;align=left;verticalAlign=top;spacingLeft=4;spacingRight=4;overflow=hidden;rotatable=0;points=[[0,0.5],[1,0.5]];portConstraint=eastwest;whiteSpace=wrap;html=1;fontSize=16;" parent="BWV3k3NZD4E5SkaaorZz-36" vertex="1">
                    <mxGeometry y="26" width="371" height="26" as="geometry"/>
                </mxCell>
                <mxCell id="BWV3k3NZD4E5SkaaorZz-38" value="+ 401K: double" style="text;strokeColor=none;fillColor=none;align=left;verticalAlign=top;spacingLeft=4;spacingRight=4;overflow=hidden;rotatable=0;points=[[0,0.5],[1,0.5]];portConstraint=eastwest;whiteSpace=wrap;html=1;fontSize=16;" parent="BWV3k3NZD4E5SkaaorZz-36" vertex="1">
                    <mxGeometry y="52" width="371" height="26" as="geometry"/>
                </mxCell>
                <mxCell id="BWV3k3NZD4E5SkaaorZz-39" value="+ healthCare: double" style="text;strokeColor=none;fillColor=none;align=left;verticalAlign=top;spacingLeft=4;spacingRight=4;overflow=hidden;rotatable=0;points=[[0,0.5],[1,0.5]];portConstraint=eastwest;whiteSpace=wrap;html=1;fontSize=16;" parent="BWV3k3NZD4E5SkaaorZz-36" vertex="1">
                    <mxGeometry y="78" width="371" height="26" as="geometry"/>
                </mxCell>
                <mxCell id="BWV3k3NZD4E5SkaaorZz-40" value="" style="line;strokeWidth=1;fillColor=none;align=left;verticalAlign=middle;spacingTop=-1;spacingLeft=3;spacingRight=3;rotatable=0;labelPosition=right;points=[];portConstraint=eastwest;strokeColor=inherit;fontSize=16;" parent="BWV3k3NZD4E5SkaaorZz-36" vertex="1">
                    <mxGeometry y="104" width="371" height="8" as="geometry"/>
                </mxCell>
                <mxCell id="BWV3k3NZD4E5SkaaorZz-41" value="+ getSalary(): double" style="text;strokeColor=none;fillColor=none;align=left;verticalAlign=top;spacingLeft=4;spacingRight=4;overflow=hidden;rotatable=0;points=[[0,0.5],[1,0.5]];portConstraint=eastwest;whiteSpace=wrap;html=1;fontSize=16;" parent="BWV3k3NZD4E5SkaaorZz-36" vertex="1">
                    <mxGeometry y="112" width="371" height="26" as="geometry"/>
                </mxCell>
                <mxCell id="BWV3k3NZD4E5SkaaorZz-42" value="+ setSalary(double): void" style="text;strokeColor=none;fillColor=none;align=left;verticalAlign=top;spacingLeft=4;spacingRight=4;overflow=hidden;rotatable=0;points=[[0,0.5],[1,0.5]];portConstraint=eastwest;whiteSpace=wrap;html=1;fontSize=16;" parent="BWV3k3NZD4E5SkaaorZz-36" vertex="1">
                    <mxGeometry y="138" width="371" height="26" as="geometry"/>
                </mxCell>
                <mxCell id="BWV3k3NZD4E5SkaaorZz-43" value="+ getHealthCare(): double" style="text;strokeColor=none;fillColor=none;align=left;verticalAlign=top;spacingLeft=4;spacingRight=4;overflow=hidden;rotatable=0;points=[[0,0.5],[1,0.5]];portConstraint=eastwest;whiteSpace=wrap;html=1;fontSize=16;" parent="BWV3k3NZD4E5SkaaorZz-36" vertex="1">
                    <mxGeometry y="164" width="371" height="26" as="geometry"/>
                </mxCell>
                <mxCell id="BWV3k3NZD4E5SkaaorZz-44" value="+ get401K(): double" style="text;strokeColor=none;fillColor=none;align=left;verticalAlign=top;spacingLeft=4;spacingRight=4;overflow=hidden;rotatable=0;points=[[0,0.5],[1,0.5]];portConstraint=eastwest;whiteSpace=wrap;html=1;fontSize=16;" parent="BWV3k3NZD4E5SkaaorZz-36" vertex="1">
                    <mxGeometry y="190" width="371" height="26" as="geometry"/>
                </mxCell>
                <mxCell id="BWV3k3NZD4E5SkaaorZz-49" value="" style="edgeStyle=none;html=1;endSize=12;endArrow=block;endFill=0;rounded=0;fontSize=12;curved=1;exitX=0.5;exitY=0;exitDx=0;exitDy=0;entryX=0.383;entryY=1.374;entryDx=0;entryDy=0;entryPerimeter=0;" parent="1" source="BWV3k3NZD4E5SkaaorZz-36" target="BWV3k3NZD4E5SkaaorZz-33" edge="1">
                    <mxGeometry width="160" relative="1" as="geometry">
                        <mxPoint x="-231" y="575" as="sourcePoint"/>
                        <mxPoint x="-213" y="463" as="targetPoint"/>
                    </mxGeometry>
                </mxCell>
                <mxCell id="BWV3k3NZD4E5SkaaorZz-50" value="" style="edgeStyle=none;html=1;endSize=12;endArrow=block;endFill=0;rounded=0;fontSize=12;curved=1;exitX=0.423;exitY=0.042;exitDx=0;exitDy=0;exitPerimeter=0;entryX=0.604;entryY=1.286;entryDx=0;entryDy=0;entryPerimeter=0;" parent="1" source="BWV3k3NZD4E5SkaaorZz-45" target="BWV3k3NZD4E5SkaaorZz-33" edge="1">
                    <mxGeometry width="160" relative="1" as="geometry">
                        <mxPoint x="289" y="547" as="sourcePoint"/>
                        <mxPoint x="313" y="440" as="targetPoint"/>
                    </mxGeometry>
                </mxCell>
                <mxCell id="BWV3k3NZD4E5SkaaorZz-45" value="Part_Time_Employee" style="swimlane;fontStyle=1;align=center;verticalAlign=top;childLayout=stackLayout;horizontal=1;startSize=26;horizontalStack=0;resizeParent=1;resizeParentMax=0;resizeLast=0;collapsible=1;marginBottom=0;whiteSpace=wrap;html=1;fontSize=16;" parent="1" vertex="1">
                    <mxGeometry x="9" y="479" width="294" height="86" as="geometry"/>
                </mxCell>
                <mxCell id="BWV3k3NZD4E5SkaaorZz-46" value="+ hourly_wage: type" style="text;strokeColor=none;fillColor=none;align=left;verticalAlign=top;spacingLeft=4;spacingRight=4;overflow=hidden;rotatable=0;points=[[0,0.5],[1,0.5]];portConstraint=eastwest;whiteSpace=wrap;html=1;fontSize=16;" parent="BWV3k3NZD4E5SkaaorZz-45" vertex="1">
                    <mxGeometry y="26" width="294" height="26" as="geometry"/>
                </mxCell>
                <mxCell id="BWV3k3NZD4E5SkaaorZz-47" value="" style="line;strokeWidth=1;fillColor=none;align=left;verticalAlign=middle;spacingTop=-1;spacingLeft=3;spacingRight=3;rotatable=0;labelPosition=right;points=[];portConstraint=eastwest;strokeColor=inherit;fontSize=16;" parent="BWV3k3NZD4E5SkaaorZz-45" vertex="1">
                    <mxGeometry y="52" width="294" height="8" as="geometry"/>
                </mxCell>
                <mxCell id="BWV3k3NZD4E5SkaaorZz-48" value="+ getHourlyWage(): double" style="text;strokeColor=none;fillColor=none;align=left;verticalAlign=top;spacingLeft=4;spacingRight=4;overflow=hidden;rotatable=0;points=[[0,0.5],[1,0.5]];portConstraint=eastwest;whiteSpace=wrap;html=1;fontSize=16;" parent="BWV3k3NZD4E5SkaaorZz-45" vertex="1">
                    <mxGeometry y="60" width="294" height="26" as="geometry"/>
                </mxCell>
                <mxCell id="BWV3k3NZD4E5SkaaorZz-53" value="PartTimePayroll" style="swimlane;fontStyle=1;align=center;verticalAlign=top;childLayout=stackLayout;horizontal=1;startSize=26;horizontalStack=0;resizeParent=1;resizeParentMax=0;resizeLast=0;collapsible=1;marginBottom=0;whiteSpace=wrap;html=1;fontSize=16;" parent="1" vertex="1">
                    <mxGeometry x="765" y="231" width="484" height="174" as="geometry"/>
                </mxCell>
                <mxCell id="BWV3k3NZD4E5SkaaorZz-54" value="+ wage: double" style="text;strokeColor=none;fillColor=none;align=left;verticalAlign=top;spacingLeft=4;spacingRight=4;overflow=hidden;rotatable=0;points=[[0,0.5],[1,0.5]];portConstraint=eastwest;whiteSpace=wrap;html=1;fontSize=16;" parent="BWV3k3NZD4E5SkaaorZz-53" vertex="1">
                    <mxGeometry y="26" width="484" height="26" as="geometry"/>
                </mxCell>
                <mxCell id="BWV3k3NZD4E5SkaaorZz-55" value="" style="line;strokeWidth=1;fillColor=none;align=left;verticalAlign=middle;spacingTop=-1;spacingLeft=3;spacingRight=3;rotatable=0;labelPosition=right;points=[];portConstraint=eastwest;strokeColor=inherit;fontSize=16;" parent="BWV3k3NZD4E5SkaaorZz-53" vertex="1">
                    <mxGeometry y="52" width="484" height="8" as="geometry"/>
                </mxCell>
                <mxCell id="BWV3k3NZD4E5SkaaorZz-56" value="+ getWage(): double" style="text;strokeColor=none;fillColor=none;align=left;verticalAlign=top;spacingLeft=4;spacingRight=4;overflow=hidden;rotatable=0;points=[[0,0.5],[1,0.5]];portConstraint=eastwest;whiteSpace=wrap;html=1;fontSize=16;" parent="BWV3k3NZD4E5SkaaorZz-53" vertex="1">
                    <mxGeometry y="60" width="484" height="26" as="geometry"/>
                </mxCell>
                <mxCell id="BWV3k3NZD4E5SkaaorZz-57" value="+ setWage(double): double&lt;br&gt;+ increaseWageIfBelowThreshold(threshold: Double, increaseRate: Double): void" style="text;strokeColor=none;fillColor=none;align=left;verticalAlign=top;spacingLeft=4;spacingRight=4;overflow=hidden;rotatable=0;points=[[0,0.5],[1,0.5]];portConstraint=eastwest;whiteSpace=wrap;html=1;fontSize=16;" parent="BWV3k3NZD4E5SkaaorZz-53" vertex="1">
                    <mxGeometry y="86" width="484" height="88" as="geometry"/>
                </mxCell>
                <mxCell id="BWV3k3NZD4E5SkaaorZz-58" value="FullTimePayroll" style="swimlane;fontStyle=1;align=center;verticalAlign=top;childLayout=stackLayout;horizontal=1;startSize=26;horizontalStack=0;resizeParent=1;resizeParentMax=0;resizeLast=0;collapsible=1;marginBottom=0;whiteSpace=wrap;html=1;fontSize=16;" parent="1" vertex="1">
                    <mxGeometry x="372" y="229" width="353" height="298" as="geometry"/>
                </mxCell>
                <mxCell id="BWV3k3NZD4E5SkaaorZz-59" value="+ salary: double" style="text;strokeColor=none;fillColor=none;align=left;verticalAlign=top;spacingLeft=4;spacingRight=4;overflow=hidden;rotatable=0;points=[[0,0.5],[1,0.5]];portConstraint=eastwest;whiteSpace=wrap;html=1;fontSize=16;" parent="BWV3k3NZD4E5SkaaorZz-58" vertex="1">
                    <mxGeometry y="26" width="353" height="26" as="geometry"/>
                </mxCell>
                <mxCell id="BWV3k3NZD4E5SkaaorZz-60" value="+ retire_401k: double" style="text;strokeColor=none;fillColor=none;align=left;verticalAlign=top;spacingLeft=4;spacingRight=4;overflow=hidden;rotatable=0;points=[[0,0.5],[1,0.5]];portConstraint=eastwest;whiteSpace=wrap;html=1;fontSize=16;" parent="BWV3k3NZD4E5SkaaorZz-58" vertex="1">
                    <mxGeometry y="52" width="353" height="26" as="geometry"/>
                </mxCell>
                <mxCell id="BWV3k3NZD4E5SkaaorZz-61" value="+ health_care: double" style="text;strokeColor=none;fillColor=none;align=left;verticalAlign=top;spacingLeft=4;spacingRight=4;overflow=hidden;rotatable=0;points=[[0,0.5],[1,0.5]];portConstraint=eastwest;whiteSpace=wrap;html=1;fontSize=16;" parent="BWV3k3NZD4E5SkaaorZz-58" vertex="1">
                    <mxGeometry y="78" width="353" height="26" as="geometry"/>
                </mxCell>
                <mxCell id="BWV3k3NZD4E5SkaaorZz-62" value="" style="line;strokeWidth=1;fillColor=none;align=left;verticalAlign=middle;spacingTop=-1;spacingLeft=3;spacingRight=3;rotatable=0;labelPosition=right;points=[];portConstraint=eastwest;strokeColor=inherit;fontSize=16;" parent="BWV3k3NZD4E5SkaaorZz-58" vertex="1">
                    <mxGeometry y="104" width="353" height="8" as="geometry"/>
                </mxCell>
                <mxCell id="BWV3k3NZD4E5SkaaorZz-63" value="+ getSalary(): double" style="text;strokeColor=none;fillColor=none;align=left;verticalAlign=top;spacingLeft=4;spacingRight=4;overflow=hidden;rotatable=0;points=[[0,0.5],[1,0.5]];portConstraint=eastwest;whiteSpace=wrap;html=1;fontSize=16;" parent="BWV3k3NZD4E5SkaaorZz-58" vertex="1">
                    <mxGeometry y="112" width="353" height="26" as="geometry"/>
                </mxCell>
                <mxCell id="BWV3k3NZD4E5SkaaorZz-64" value="+ setSalary(double): void" style="text;strokeColor=none;fillColor=none;align=left;verticalAlign=top;spacingLeft=4;spacingRight=4;overflow=hidden;rotatable=0;points=[[0,0.5],[1,0.5]];portConstraint=eastwest;whiteSpace=wrap;html=1;fontSize=16;" parent="BWV3k3NZD4E5SkaaorZz-58" vertex="1">
                    <mxGeometry y="138" width="353" height="26" as="geometry"/>
                </mxCell>
                <mxCell id="BWV3k3NZD4E5SkaaorZz-65" value="+ get401K(double): void" style="text;strokeColor=none;fillColor=none;align=left;verticalAlign=top;spacingLeft=4;spacingRight=4;overflow=hidden;rotatable=0;points=[[0,0.5],[1,0.5]];portConstraint=eastwest;whiteSpace=wrap;html=1;fontSize=16;" parent="BWV3k3NZD4E5SkaaorZz-58" vertex="1">
                    <mxGeometry y="164" width="353" height="26" as="geometry"/>
                </mxCell>
                <mxCell id="BWV3k3NZD4E5SkaaorZz-66" value="+ getHealthCare(): double&lt;br&gt;+ increaseSalaryIfBelowThreshold(threshold: Double, increaseRate: Double): void" style="text;strokeColor=none;fillColor=none;align=left;verticalAlign=top;spacingLeft=4;spacingRight=4;overflow=hidden;rotatable=0;points=[[0,0.5],[1,0.5]];portConstraint=eastwest;whiteSpace=wrap;html=1;fontSize=16;" parent="BWV3k3NZD4E5SkaaorZz-58" vertex="1">
                    <mxGeometry y="190" width="353" height="108" as="geometry"/>
                </mxCell>
                <mxCell id="BWV3k3NZD4E5SkaaorZz-67" value="" style="edgeStyle=none;html=1;endSize=12;endArrow=block;endFill=0;rounded=0;fontSize=12;curved=1;exitX=0.5;exitY=0;exitDx=0;exitDy=0;entryX=0.704;entryY=1.205;entryDx=0;entryDy=0;entryPerimeter=0;" parent="1" source="BWV3k3NZD4E5SkaaorZz-53" target="BWV3k3NZD4E5SkaaorZz-13" edge="1">
                    <mxGeometry width="160" relative="1" as="geometry">
                        <mxPoint x="929" y="1572" as="sourcePoint"/>
                        <mxPoint x="682" y="179" as="targetPoint"/>
                    </mxGeometry>
                </mxCell>
                <mxCell id="BWV3k3NZD4E5SkaaorZz-68" value="" style="edgeStyle=none;html=1;endSize=12;endArrow=block;endFill=0;rounded=0;fontSize=12;curved=1;entryX=0.415;entryY=1.479;entryDx=0;entryDy=0;entryPerimeter=0;exitX=0.33;exitY=-0.052;exitDx=0;exitDy=0;exitPerimeter=0;" parent="1" source="BWV3k3NZD4E5SkaaorZz-58" target="BWV3k3NZD4E5SkaaorZz-13" edge="1">
                    <mxGeometry width="160" relative="1" as="geometry">
                        <mxPoint x="510" y="264" as="sourcePoint"/>
                        <mxPoint x="747" y="469" as="targetPoint"/>
                    </mxGeometry>
                </mxCell>
                <mxCell id="BWV3k3NZD4E5SkaaorZz-69" value="" style="endArrow=classic;html=1;rounded=0;fontSize=12;startSize=8;endSize=8;curved=1;entryX=0.009;entryY=0.055;entryDx=0;entryDy=0;entryPerimeter=0;exitX=0.997;exitY=0.029;exitDx=0;exitDy=0;exitPerimeter=0;" parent="1" source="BWV3k3NZD4E5SkaaorZz-14" target="BWV3k3NZD4E5SkaaorZz-1" edge="1">
                    <mxGeometry width="50" height="50" relative="1" as="geometry">
                        <mxPoint x="222" y="-155" as="sourcePoint"/>
                        <mxPoint x="481" y="-181" as="targetPoint"/>
                    </mxGeometry>
                </mxCell>
                <mxCell id="BWV3k3NZD4E5SkaaorZz-70" value="1" style="edgeLabel;html=1;align=center;verticalAlign=middle;resizable=0;points=[];fontSize=16;" parent="BWV3k3NZD4E5SkaaorZz-69" connectable="0" vertex="1">
                    <mxGeometry x="-0.869" y="-4" relative="1" as="geometry">
                        <mxPoint as="offset"/>
                    </mxGeometry>
                </mxCell>
                <mxCell id="BWV3k3NZD4E5SkaaorZz-71" value="n" style="edgeLabel;html=1;align=center;verticalAlign=middle;resizable=0;points=[];fontSize=16;" parent="BWV3k3NZD4E5SkaaorZz-69" connectable="0" vertex="1">
                    <mxGeometry x="0.7671" y="5" relative="1" as="geometry">
                        <mxPoint y="1" as="offset"/>
                    </mxGeometry>
                </mxCell>
                <mxCell id="BWV3k3NZD4E5SkaaorZz-72" value="Address" style="swimlane;fontStyle=1;align=center;verticalAlign=top;childLayout=stackLayout;horizontal=1;startSize=26;horizontalStack=0;resizeParent=1;resizeParentMax=0;resizeLast=0;collapsible=1;marginBottom=0;whiteSpace=wrap;html=1;fontSize=16;" parent="1" vertex="1">
                    <mxGeometry x="-997" y="-167" width="373" height="485" as="geometry"/>
                </mxCell>
                <mxCell id="BWV3k3NZD4E5SkaaorZz-73" value="+ Employee: Employee" style="text;strokeColor=none;fillColor=none;align=left;verticalAlign=top;spacingLeft=4;spacingRight=4;overflow=hidden;rotatable=0;points=[[0,0.5],[1,0.5]];portConstraint=eastwest;whiteSpace=wrap;html=1;fontSize=16;" parent="BWV3k3NZD4E5SkaaorZz-72" vertex="1">
                    <mxGeometry y="26" width="373" height="35" as="geometry"/>
                </mxCell>
                <mxCell id="BWV3k3NZD4E5SkaaorZz-74" value="+ streetName: String" style="text;strokeColor=none;fillColor=none;align=left;verticalAlign=top;spacingLeft=4;spacingRight=4;overflow=hidden;rotatable=0;points=[[0,0.5],[1,0.5]];portConstraint=eastwest;whiteSpace=wrap;html=1;fontSize=16;" parent="BWV3k3NZD4E5SkaaorZz-72" vertex="1">
                    <mxGeometry y="61" width="373" height="26" as="geometry"/>
                </mxCell>
                <mxCell id="BWV3k3NZD4E5SkaaorZz-75" value="+ city: String" style="text;strokeColor=none;fillColor=none;align=left;verticalAlign=top;spacingLeft=4;spacingRight=4;overflow=hidden;rotatable=0;points=[[0,0.5],[1,0.5]];portConstraint=eastwest;whiteSpace=wrap;html=1;fontSize=16;" parent="BWV3k3NZD4E5SkaaorZz-72" vertex="1">
                    <mxGeometry y="87" width="373" height="26" as="geometry"/>
                </mxCell>
                <mxCell id="BWV3k3NZD4E5SkaaorZz-76" value="+ state: String" style="text;strokeColor=none;fillColor=none;align=left;verticalAlign=top;spacingLeft=4;spacingRight=4;overflow=hidden;rotatable=0;points=[[0,0.5],[1,0.5]];portConstraint=eastwest;whiteSpace=wrap;html=1;fontSize=16;" parent="BWV3k3NZD4E5SkaaorZz-72" vertex="1">
                    <mxGeometry y="113" width="373" height="26" as="geometry"/>
                </mxCell>
                <mxCell id="BWV3k3NZD4E5SkaaorZz-77" value="+ zip: int" style="text;strokeColor=none;fillColor=none;align=left;verticalAlign=top;spacingLeft=4;spacingRight=4;overflow=hidden;rotatable=0;points=[[0,0.5],[1,0.5]];portConstraint=eastwest;whiteSpace=wrap;html=1;fontSize=16;" parent="BWV3k3NZD4E5SkaaorZz-72" vertex="1">
                    <mxGeometry y="139" width="373" height="26" as="geometry"/>
                </mxCell>
                <mxCell id="BWV3k3NZD4E5SkaaorZz-78" value="+ country: String" style="text;strokeColor=none;fillColor=none;align=left;verticalAlign=top;spacingLeft=4;spacingRight=4;overflow=hidden;rotatable=0;points=[[0,0.5],[1,0.5]];portConstraint=eastwest;whiteSpace=wrap;html=1;fontSize=16;" parent="BWV3k3NZD4E5SkaaorZz-72" vertex="1">
                    <mxGeometry y="165" width="373" height="26" as="geometry"/>
                </mxCell>
                <mxCell id="BWV3k3NZD4E5SkaaorZz-79" value="" style="line;strokeWidth=1;fillColor=none;align=left;verticalAlign=middle;spacingTop=-1;spacingLeft=3;spacingRight=3;rotatable=0;labelPosition=right;points=[];portConstraint=eastwest;strokeColor=inherit;fontSize=16;" parent="BWV3k3NZD4E5SkaaorZz-72" vertex="1">
                    <mxGeometry y="191" width="373" height="8" as="geometry"/>
                </mxCell>
                <mxCell id="BWV3k3NZD4E5SkaaorZz-80" value="+ toString(): String" style="text;strokeColor=none;fillColor=none;align=left;verticalAlign=top;spacingLeft=4;spacingRight=4;overflow=hidden;rotatable=0;points=[[0,0.5],[1,0.5]];portConstraint=eastwest;whiteSpace=wrap;html=1;fontSize=16;" parent="BWV3k3NZD4E5SkaaorZz-72" vertex="1">
                    <mxGeometry y="199" width="373" height="26" as="geometry"/>
                </mxCell>
                <mxCell id="BWV3k3NZD4E5SkaaorZz-81" value="+ getStreetName():&amp;nbsp; String" style="text;strokeColor=none;fillColor=none;align=left;verticalAlign=top;spacingLeft=4;spacingRight=4;overflow=hidden;rotatable=0;points=[[0,0.5],[1,0.5]];portConstraint=eastwest;whiteSpace=wrap;html=1;fontSize=16;" parent="BWV3k3NZD4E5SkaaorZz-72" vertex="1">
                    <mxGeometry y="225" width="373" height="26" as="geometry"/>
                </mxCell>
                <mxCell id="BWV3k3NZD4E5SkaaorZz-82" value="+ setStreetName(String): void" style="text;strokeColor=none;fillColor=none;align=left;verticalAlign=top;spacingLeft=4;spacingRight=4;overflow=hidden;rotatable=0;points=[[0,0.5],[1,0.5]];portConstraint=eastwest;whiteSpace=wrap;html=1;fontSize=16;" parent="BWV3k3NZD4E5SkaaorZz-72" vertex="1">
                    <mxGeometry y="251" width="373" height="26" as="geometry"/>
                </mxCell>
                <mxCell id="BWV3k3NZD4E5SkaaorZz-83" value="+ getCity(): String" style="text;strokeColor=none;fillColor=none;align=left;verticalAlign=top;spacingLeft=4;spacingRight=4;overflow=hidden;rotatable=0;points=[[0,0.5],[1,0.5]];portConstraint=eastwest;whiteSpace=wrap;html=1;fontSize=16;" parent="BWV3k3NZD4E5SkaaorZz-72" vertex="1">
                    <mxGeometry y="277" width="373" height="26" as="geometry"/>
                </mxCell>
                <mxCell id="BWV3k3NZD4E5SkaaorZz-84" value="+ setCity(String): void" style="text;strokeColor=none;fillColor=none;align=left;verticalAlign=top;spacingLeft=4;spacingRight=4;overflow=hidden;rotatable=0;points=[[0,0.5],[1,0.5]];portConstraint=eastwest;whiteSpace=wrap;html=1;fontSize=16;" parent="BWV3k3NZD4E5SkaaorZz-72" vertex="1">
                    <mxGeometry y="303" width="373" height="26" as="geometry"/>
                </mxCell>
                <mxCell id="BWV3k3NZD4E5SkaaorZz-85" value="+ getState(): String" style="text;strokeColor=none;fillColor=none;align=left;verticalAlign=top;spacingLeft=4;spacingRight=4;overflow=hidden;rotatable=0;points=[[0,0.5],[1,0.5]];portConstraint=eastwest;whiteSpace=wrap;html=1;fontSize=16;" parent="BWV3k3NZD4E5SkaaorZz-72" vertex="1">
                    <mxGeometry y="329" width="373" height="26" as="geometry"/>
                </mxCell>
                <mxCell id="BWV3k3NZD4E5SkaaorZz-86" value="+ setState(String): void" style="text;strokeColor=none;fillColor=none;align=left;verticalAlign=top;spacingLeft=4;spacingRight=4;overflow=hidden;rotatable=0;points=[[0,0.5],[1,0.5]];portConstraint=eastwest;whiteSpace=wrap;html=1;fontSize=16;" parent="BWV3k3NZD4E5SkaaorZz-72" vertex="1">
                    <mxGeometry y="355" width="373" height="26" as="geometry"/>
                </mxCell>
                <mxCell id="BWV3k3NZD4E5SkaaorZz-87" value="+ getCountry(): String" style="text;strokeColor=none;fillColor=none;align=left;verticalAlign=top;spacingLeft=4;spacingRight=4;overflow=hidden;rotatable=0;points=[[0,0.5],[1,0.5]];portConstraint=eastwest;whiteSpace=wrap;html=1;fontSize=16;" parent="BWV3k3NZD4E5SkaaorZz-72" vertex="1">
                    <mxGeometry y="381" width="373" height="26" as="geometry"/>
                </mxCell>
                <mxCell id="BWV3k3NZD4E5SkaaorZz-88" value="+ setCountry(String): String" style="text;strokeColor=none;fillColor=none;align=left;verticalAlign=top;spacingLeft=4;spacingRight=4;overflow=hidden;rotatable=0;points=[[0,0.5],[1,0.5]];portConstraint=eastwest;whiteSpace=wrap;html=1;fontSize=16;" parent="BWV3k3NZD4E5SkaaorZz-72" vertex="1">
                    <mxGeometry y="407" width="373" height="26" as="geometry"/>
                </mxCell>
                <mxCell id="BWV3k3NZD4E5SkaaorZz-89" value="+ getZip(): int" style="text;strokeColor=none;fillColor=none;align=left;verticalAlign=top;spacingLeft=4;spacingRight=4;overflow=hidden;rotatable=0;points=[[0,0.5],[1,0.5]];portConstraint=eastwest;whiteSpace=wrap;html=1;fontSize=16;" parent="BWV3k3NZD4E5SkaaorZz-72" vertex="1">
                    <mxGeometry y="433" width="373" height="26" as="geometry"/>
                </mxCell>
                <mxCell id="BWV3k3NZD4E5SkaaorZz-90" value="+ setZip(int): void" style="text;strokeColor=none;fillColor=none;align=left;verticalAlign=top;spacingLeft=4;spacingRight=4;overflow=hidden;rotatable=0;points=[[0,0.5],[1,0.5]];portConstraint=eastwest;whiteSpace=wrap;html=1;fontSize=16;" parent="BWV3k3NZD4E5SkaaorZz-72" vertex="1">
                    <mxGeometry y="459" width="373" height="26" as="geometry"/>
                </mxCell>
                <mxCell id="BWV3k3NZD4E5SkaaorZz-91" value="" style="endArrow=classic;startArrow=classic;html=1;rounded=0;fontSize=12;startSize=8;endSize=8;curved=1;exitX=1.005;exitY=0.029;exitDx=0;exitDy=0;exitPerimeter=0;entryX=0.001;entryY=0.029;entryDx=0;entryDy=0;entryPerimeter=0;" parent="1" source="BWV3k3NZD4E5SkaaorZz-72" target="BWV3k3NZD4E5SkaaorZz-14" edge="1">
                    <mxGeometry width="50" height="50" relative="1" as="geometry">
                        <mxPoint x="-599" y="-241" as="sourcePoint"/>
                        <mxPoint x="-313" y="-185" as="targetPoint"/>
                    </mxGeometry>
                </mxCell>
                <mxCell id="BWV3k3NZD4E5SkaaorZz-92" value="1" style="edgeLabel;html=1;align=center;verticalAlign=middle;resizable=0;points=[];fontSize=16;" parent="BWV3k3NZD4E5SkaaorZz-91" connectable="0" vertex="1">
                    <mxGeometry x="-0.7198" y="-1" relative="1" as="geometry">
                        <mxPoint x="-1" as="offset"/>
                    </mxGeometry>
                </mxCell>
                <mxCell id="BWV3k3NZD4E5SkaaorZz-93" value="1" style="edgeLabel;html=1;align=center;verticalAlign=middle;resizable=0;points=[];fontSize=16;" parent="BWV3k3NZD4E5SkaaorZz-91" connectable="0" vertex="1">
                    <mxGeometry x="0.6549" y="-3" relative="1" as="geometry">
                        <mxPoint x="-1" as="offset"/>
                    </mxGeometry>
                </mxCell>
            </root>
        </mxGraphModel>
    </diagram>
</mxfile>